<mxfile host="app.diagrams.net" agent="Mozilla/5.0 (Windows NT 10.0; Win64; x64) AppleWebKit/537.36 (KHTML, like Gecko) Chrome/138.0.0.0 Safari/537.36" version="27.2.0">
  <diagram name="Page-1" id="22yWZhwbZevipYdjo6Gn">
    <mxGraphModel dx="4074" dy="2160" grid="1" gridSize="10" guides="1" tooltips="1" connect="1" arrows="1" fold="1" page="1" pageScale="1" pageWidth="850" pageHeight="1100" math="0" shadow="0">
      <root>
        <mxCell id="0" />
        <mxCell id="1" parent="0" />
        <mxCell id="T33Bu6MzQeJHdCOrsTAm-1" value="" style="rounded=0;whiteSpace=wrap;html=1;strokeWidth=4;movable=1;resizable=1;rotatable=1;deletable=1;editable=1;locked=0;connectable=1;" vertex="1" parent="1">
          <mxGeometry x="420" y="320" width="545" height="1680" as="geometry" />
        </mxCell>
        <mxCell id="T33Bu6MzQeJHdCOrsTAm-2" value="" style="rounded=0;whiteSpace=wrap;html=1;strokeWidth=4;movable=1;resizable=1;rotatable=1;deletable=1;editable=1;locked=0;connectable=1;" vertex="1" parent="1">
          <mxGeometry x="965" y="320" width="535" height="1680" as="geometry" />
        </mxCell>
        <mxCell id="T33Bu6MzQeJHdCOrsTAm-3" value="" style="endArrow=none;html=1;rounded=0;exitX=0.003;exitY=0.114;exitDx=0;exitDy=0;exitPerimeter=0;entryX=1.005;entryY=0.113;entryDx=0;entryDy=0;entryPerimeter=0;strokeWidth=4;" edge="1" parent="1">
          <mxGeometry width="50" height="50" relative="1" as="geometry">
            <mxPoint x="410" y="421.82000000000005" as="sourcePoint" />
            <mxPoint x="1491.04" y="420.0000000000001" as="targetPoint" />
          </mxGeometry>
        </mxCell>
        <mxCell id="T33Bu6MzQeJHdCOrsTAm-4" value="&lt;font style=&quot;font-size: 40px;&quot; face=&quot;Times New Roman&quot;&gt;ADMIN&lt;/font&gt;" style="text;html=1;align=center;verticalAlign=middle;whiteSpace=wrap;rounded=0;" vertex="1" parent="1">
          <mxGeometry x="585.625" y="370" width="195" height="30" as="geometry" />
        </mxCell>
        <mxCell id="T33Bu6MzQeJHdCOrsTAm-5" value="&lt;font style=&quot;font-size: 40px;&quot; face=&quot;Times New Roman&quot;&gt;SYSTEM&lt;/font&gt;" style="text;html=1;align=center;verticalAlign=middle;whiteSpace=wrap;rounded=0;" vertex="1" parent="1">
          <mxGeometry x="1134.9950000000001" y="370" width="195" height="30" as="geometry" />
        </mxCell>
        <mxCell id="T33Bu6MzQeJHdCOrsTAm-6" value="&lt;font style=&quot;font-size: 25px;&quot;&gt;MENAMPILKAN DASHBOARD&lt;/font&gt;&lt;div&gt;&lt;font style=&quot;font-size: 25px;&quot;&gt;&amp;nbsp;DAN SIDE BAR ADMIN&lt;/font&gt;&lt;/div&gt;" style="rounded=1;whiteSpace=wrap;html=1;strokeWidth=4;" vertex="1" parent="1">
          <mxGeometry x="1065.615" y="620" width="336.88" height="162.28" as="geometry" />
        </mxCell>
        <mxCell id="T33Bu6MzQeJHdCOrsTAm-7" value="" style="endArrow=classic;html=1;rounded=0;exitX=0;exitY=0.5;exitDx=0;exitDy=0;entryX=1;entryY=0.5;entryDx=0;entryDy=0;" edge="1" parent="1" source="T33Bu6MzQeJHdCOrsTAm-6" target="T33Bu6MzQeJHdCOrsTAm-8">
          <mxGeometry width="50" height="50" relative="1" as="geometry">
            <mxPoint x="849.995" y="952.28" as="sourcePoint" />
            <mxPoint x="1174.995" y="1172.28" as="targetPoint" />
            <Array as="points" />
          </mxGeometry>
        </mxCell>
        <mxCell id="T33Bu6MzQeJHdCOrsTAm-8" value="&lt;font style=&quot;font-size: 27px;&quot;&gt;MENGAKSES KELOLA ADMIN&lt;/font&gt;" style="rounded=1;whiteSpace=wrap;html=1;strokeWidth=4;" vertex="1" parent="1">
          <mxGeometry x="539.995" y="627.28" width="319.69" height="147.72" as="geometry" />
        </mxCell>
        <mxCell id="T33Bu6MzQeJHdCOrsTAm-9" value="" style="edgeStyle=orthogonalEdgeStyle;rounded=0;orthogonalLoop=1;jettySize=auto;html=1;exitX=0.5;exitY=1;exitDx=0;exitDy=0;" edge="1" parent="1" source="T33Bu6MzQeJHdCOrsTAm-10" target="T33Bu6MzQeJHdCOrsTAm-15">
          <mxGeometry relative="1" as="geometry" />
        </mxCell>
        <mxCell id="T33Bu6MzQeJHdCOrsTAm-10" value="&lt;font style=&quot;font-size: 26px;&quot;&gt;MENAMPILKAN HALAMAN KELOLA ADMIN&lt;/font&gt;" style="whiteSpace=wrap;html=1;rounded=1;strokeWidth=4;" vertex="1" parent="1">
          <mxGeometry x="1076.245" y="800" width="293.75" height="167.72" as="geometry" />
        </mxCell>
        <mxCell id="T33Bu6MzQeJHdCOrsTAm-11" value="" style="endArrow=classic;html=1;rounded=0;exitX=0.5;exitY=1;exitDx=0;exitDy=0;entryX=0;entryY=0.5;entryDx=0;entryDy=0;" edge="1" parent="1" source="T33Bu6MzQeJHdCOrsTAm-8" target="T33Bu6MzQeJHdCOrsTAm-10">
          <mxGeometry width="50" height="50" relative="1" as="geometry">
            <mxPoint x="1279.6750000000002" y="1810" as="sourcePoint" />
            <mxPoint x="1341.8649999999998" y="1580" as="targetPoint" />
            <Array as="points">
              <mxPoint x="700" y="890" />
            </Array>
          </mxGeometry>
        </mxCell>
        <mxCell id="T33Bu6MzQeJHdCOrsTAm-12" value="" style="ellipse;whiteSpace=wrap;html=1;aspect=fixed;gradientColor=none;fillColor=#330000;" vertex="1" parent="1">
          <mxGeometry x="1192.495" y="480" width="80" height="80" as="geometry" />
        </mxCell>
        <mxCell id="T33Bu6MzQeJHdCOrsTAm-13" value="" style="endArrow=classic;html=1;rounded=0;exitX=0.5;exitY=1;exitDx=0;exitDy=0;entryX=0.5;entryY=0;entryDx=0;entryDy=0;" edge="1" parent="1" source="T33Bu6MzQeJHdCOrsTAm-12" target="T33Bu6MzQeJHdCOrsTAm-6">
          <mxGeometry width="50" height="50" relative="1" as="geometry">
            <mxPoint x="639.995" y="840" as="sourcePoint" />
            <mxPoint x="682.9667900000004" y="619.2885999999999" as="targetPoint" />
          </mxGeometry>
        </mxCell>
        <mxCell id="T33Bu6MzQeJHdCOrsTAm-14" value="" style="edgeStyle=orthogonalEdgeStyle;rounded=0;orthogonalLoop=1;jettySize=auto;html=1;entryX=0;entryY=0.5;entryDx=0;entryDy=0;" edge="1" parent="1" source="T33Bu6MzQeJHdCOrsTAm-15" target="T33Bu6MzQeJHdCOrsTAm-42">
          <mxGeometry relative="1" as="geometry">
            <mxPoint x="1026.7200000000003" y="1110" as="targetPoint" />
          </mxGeometry>
        </mxCell>
        <mxCell id="T33Bu6MzQeJHdCOrsTAm-15" value="&lt;span style=&quot;font-size: 26px;&quot;&gt;MENDAFTARKAN ADMIN BARU&lt;/span&gt;" style="whiteSpace=wrap;html=1;rounded=1;strokeWidth=4;" vertex="1" parent="1">
          <mxGeometry x="552.9649999999999" y="1026.1399999999999" width="293.75" height="167.72" as="geometry" />
        </mxCell>
        <mxCell id="T33Bu6MzQeJHdCOrsTAm-17" value="" style="whiteSpace=wrap;html=1;rounded=1;strokeWidth=4;" vertex="1" parent="1">
          <mxGeometry x="470.005" y="1338.42" width="483.75" height="30" as="geometry" />
        </mxCell>
        <mxCell id="T33Bu6MzQeJHdCOrsTAm-18" value="" style="endArrow=classic;html=1;rounded=0;exitX=0.772;exitY=1.226;exitDx=0;exitDy=0;exitPerimeter=0;" edge="1" parent="1">
          <mxGeometry width="50" height="50" relative="1" as="geometry">
            <mxPoint x="844.2999999999998" y="1368.42" as="sourcePoint" />
            <mxPoint x="844.215" y="1411.64" as="targetPoint" />
          </mxGeometry>
        </mxCell>
        <mxCell id="T33Bu6MzQeJHdCOrsTAm-19" value="" style="endArrow=classic;html=1;rounded=0;exitX=0.772;exitY=1.226;exitDx=0;exitDy=0;exitPerimeter=0;" edge="1" parent="1">
          <mxGeometry width="50" height="50" relative="1" as="geometry">
            <mxPoint x="599.375" y="1368.42" as="sourcePoint" />
            <mxPoint x="599.375" y="1411.42" as="targetPoint" />
          </mxGeometry>
        </mxCell>
        <mxCell id="T33Bu6MzQeJHdCOrsTAm-20" value="" style="edgeStyle=orthogonalEdgeStyle;rounded=0;orthogonalLoop=1;jettySize=auto;html=1;" edge="1" parent="1" source="T33Bu6MzQeJHdCOrsTAm-21" target="T33Bu6MzQeJHdCOrsTAm-31">
          <mxGeometry relative="1" as="geometry" />
        </mxCell>
        <mxCell id="T33Bu6MzQeJHdCOrsTAm-21" value="&lt;span style=&quot;font-size: 26px;&quot;&gt;MENGEDIT&amp;nbsp;&lt;/span&gt;&lt;div&gt;&lt;span style=&quot;font-size: 26px;&quot;&gt;AKUN ADMIN&lt;/span&gt;&lt;/div&gt;" style="whiteSpace=wrap;html=1;rounded=1;strokeWidth=4;" vertex="1" parent="1">
          <mxGeometry x="479.375" y="1418.42" width="220" height="114" as="geometry" />
        </mxCell>
        <mxCell id="T33Bu6MzQeJHdCOrsTAm-22" value="" style="edgeStyle=orthogonalEdgeStyle;rounded=0;orthogonalLoop=1;jettySize=auto;html=1;" edge="1" parent="1" source="T33Bu6MzQeJHdCOrsTAm-23" target="T33Bu6MzQeJHdCOrsTAm-24">
          <mxGeometry relative="1" as="geometry" />
        </mxCell>
        <mxCell id="T33Bu6MzQeJHdCOrsTAm-23" value="&lt;font style=&quot;font-size: 26px;&quot;&gt;MENGHAPUS&lt;/font&gt;&lt;div&gt;&lt;font style=&quot;font-size: 26px;&quot;&gt;AKUN ADMIN&lt;/font&gt;&lt;/div&gt;" style="whiteSpace=wrap;html=1;rounded=1;strokeWidth=4;" vertex="1" parent="1">
          <mxGeometry x="729.375" y="1418.42" width="210" height="114" as="geometry" />
        </mxCell>
        <mxCell id="T33Bu6MzQeJHdCOrsTAm-24" value="&lt;span style=&quot;font-size: 26px;&quot;&gt;MENAMPILKAN ALERT UNTUK MENGHAPUS&lt;/span&gt;" style="whiteSpace=wrap;html=1;rounded=1;strokeWidth=4;" vertex="1" parent="1">
          <mxGeometry x="1019.385" y="1418.42" width="210" height="114" as="geometry" />
        </mxCell>
        <mxCell id="T33Bu6MzQeJHdCOrsTAm-25" value="" style="edgeStyle=orthogonalEdgeStyle;rounded=0;orthogonalLoop=1;jettySize=auto;html=1;" edge="1" parent="1" source="T33Bu6MzQeJHdCOrsTAm-27" target="T33Bu6MzQeJHdCOrsTAm-33">
          <mxGeometry relative="1" as="geometry" />
        </mxCell>
        <mxCell id="T33Bu6MzQeJHdCOrsTAm-26" value="&lt;font style=&quot;font-size: 26px;&quot;&gt;IYA&lt;/font&gt;" style="edgeLabel;html=1;align=center;verticalAlign=middle;resizable=0;points=[];" vertex="1" connectable="0" parent="T33Bu6MzQeJHdCOrsTAm-25">
          <mxGeometry x="-0.4444" y="2" relative="1" as="geometry">
            <mxPoint as="offset" />
          </mxGeometry>
        </mxCell>
        <mxCell id="T33Bu6MzQeJHdCOrsTAm-27" value="" style="rhombus;whiteSpace=wrap;html=1;strokeWidth=4;" vertex="1" parent="1">
          <mxGeometry x="1279.385" y="1430.42" width="100" height="90" as="geometry" />
        </mxCell>
        <mxCell id="T33Bu6MzQeJHdCOrsTAm-28" value="" style="edgeStyle=orthogonalEdgeStyle;rounded=0;orthogonalLoop=1;jettySize=auto;html=1;exitX=1;exitY=0.5;exitDx=0;exitDy=0;entryX=0;entryY=0.5;entryDx=0;entryDy=0;" edge="1" parent="1" source="T33Bu6MzQeJHdCOrsTAm-24" target="T33Bu6MzQeJHdCOrsTAm-27">
          <mxGeometry relative="1" as="geometry">
            <mxPoint x="1249.385" y="1448.42" as="sourcePoint" />
            <mxPoint x="1339.385" y="1448.42" as="targetPoint" />
          </mxGeometry>
        </mxCell>
        <mxCell id="T33Bu6MzQeJHdCOrsTAm-29" value="" style="edgeStyle=orthogonalEdgeStyle;rounded=0;orthogonalLoop=1;jettySize=auto;html=1;exitX=0.5;exitY=0;exitDx=0;exitDy=0;entryX=0.25;entryY=1;entryDx=0;entryDy=0;" edge="1" parent="1" source="T33Bu6MzQeJHdCOrsTAm-27" target="T33Bu6MzQeJHdCOrsTAm-42">
          <mxGeometry relative="1" as="geometry">
            <mxPoint x="1329.385" y="1258.42" as="sourcePoint" />
            <mxPoint x="1379.385" y="1258.42" as="targetPoint" />
          </mxGeometry>
        </mxCell>
        <mxCell id="T33Bu6MzQeJHdCOrsTAm-30" value="" style="edgeStyle=orthogonalEdgeStyle;rounded=0;orthogonalLoop=1;jettySize=auto;html=1;" edge="1" parent="1" source="T33Bu6MzQeJHdCOrsTAm-31" target="T33Bu6MzQeJHdCOrsTAm-32">
          <mxGeometry relative="1" as="geometry" />
        </mxCell>
        <mxCell id="T33Bu6MzQeJHdCOrsTAm-31" value="&lt;font style=&quot;font-size: 26px;&quot;&gt;MENGISI FORM EDIT&lt;/font&gt;" style="whiteSpace=wrap;html=1;rounded=1;strokeWidth=4;" vertex="1" parent="1">
          <mxGeometry x="479.375" y="1612.42" width="220" height="114" as="geometry" />
        </mxCell>
        <mxCell id="T33Bu6MzQeJHdCOrsTAm-32" value="&lt;font style=&quot;font-size: 26px;&quot;&gt;MENGUBAH ISI AKUN&lt;/font&gt;" style="whiteSpace=wrap;html=1;rounded=1;strokeWidth=4;" vertex="1" parent="1">
          <mxGeometry x="1019.385" y="1612.42" width="170" height="114" as="geometry" />
        </mxCell>
        <mxCell id="T33Bu6MzQeJHdCOrsTAm-33" value="&lt;font style=&quot;font-size: 24px;&quot;&gt;MENGHAPUS AKUN&lt;/font&gt;" style="rounded=1;whiteSpace=wrap;html=1;strokeWidth=4;" vertex="1" parent="1">
          <mxGeometry x="1246.885" y="1616.42" width="165" height="110" as="geometry" />
        </mxCell>
        <mxCell id="T33Bu6MzQeJHdCOrsTAm-34" value="" style="edgeStyle=orthogonalEdgeStyle;rounded=0;orthogonalLoop=1;jettySize=auto;html=1;exitX=0.5;exitY=1;exitDx=0;exitDy=0;entryX=0.889;entryY=1.008;entryDx=0;entryDy=0;entryPerimeter=0;" edge="1" parent="1" source="T33Bu6MzQeJHdCOrsTAm-32" target="T33Bu6MzQeJHdCOrsTAm-42">
          <mxGeometry relative="1" as="geometry">
            <mxPoint x="1129.385" y="1668.42" as="sourcePoint" />
            <mxPoint x="1429.39" y="1228.42" as="targetPoint" />
            <Array as="points">
              <mxPoint x="1114.39" y="1726.42" />
              <mxPoint x="1114.39" y="1768.42" />
              <mxPoint x="1432.39" y="1768.42" />
              <mxPoint x="1432.39" y="1228.42" />
              <mxPoint x="1432.39" y="1228.42" />
            </Array>
          </mxGeometry>
        </mxCell>
        <mxCell id="T33Bu6MzQeJHdCOrsTAm-35" value="&lt;font style=&quot;font-size: 34px;&quot;&gt;START&lt;/font&gt;" style="text;html=1;align=center;verticalAlign=middle;whiteSpace=wrap;rounded=0;" vertex="1" parent="1">
          <mxGeometry x="1169.055" y="450" width="126.87" height="30" as="geometry" />
        </mxCell>
        <mxCell id="T33Bu6MzQeJHdCOrsTAm-36" value="" style="ellipse;html=1;shape=endState;fillColor=#000000;strokeColor=#ff0000;" vertex="1" parent="1">
          <mxGeometry x="653.5900000000001" y="1818.42" width="75.79" height="80" as="geometry" />
        </mxCell>
        <mxCell id="T33Bu6MzQeJHdCOrsTAm-37" value="&lt;font style=&quot;font-size: 34px;&quot;&gt;END&lt;/font&gt;" style="text;html=1;align=center;verticalAlign=middle;whiteSpace=wrap;rounded=0;" vertex="1" parent="1">
          <mxGeometry x="628.0450000000001" y="1908.42" width="126.87" height="30" as="geometry" />
        </mxCell>
        <mxCell id="T33Bu6MzQeJHdCOrsTAm-42" value="&lt;span style=&quot;font-size: 26px;&quot;&gt;MENAMPILKAN SEMUA DAFTAR&lt;/span&gt;&lt;div&gt;&lt;span style=&quot;font-size: 26px;&quot;&gt;ADMIN&lt;/span&gt;&lt;/div&gt;" style="whiteSpace=wrap;html=1;rounded=1;strokeWidth=4;" vertex="1" parent="1">
          <mxGeometry x="1028.44" y="1026.14" width="450" height="167.72" as="geometry" />
        </mxCell>
        <mxCell id="T33Bu6MzQeJHdCOrsTAm-44" value="" style="edgeStyle=orthogonalEdgeStyle;rounded=0;orthogonalLoop=1;jettySize=auto;html=1;exitX=0.144;exitY=0.979;exitDx=0;exitDy=0;exitPerimeter=0;entryX=0.5;entryY=0;entryDx=0;entryDy=0;" edge="1" parent="1" source="T33Bu6MzQeJHdCOrsTAm-42" target="T33Bu6MzQeJHdCOrsTAm-17">
          <mxGeometry relative="1" as="geometry">
            <mxPoint x="1089.39" y="1258.42" as="sourcePoint" />
            <mxPoint x="1262.39" y="1258.42" as="targetPoint" />
            <Array as="points">
              <mxPoint x="1104.39" y="1228.42" />
              <mxPoint x="711.39" y="1228.42" />
            </Array>
          </mxGeometry>
        </mxCell>
        <mxCell id="T33Bu6MzQeJHdCOrsTAm-45" value="" style="edgeStyle=orthogonalEdgeStyle;rounded=0;orthogonalLoop=1;jettySize=auto;html=1;entryX=0.506;entryY=-0.025;entryDx=0;entryDy=0;entryPerimeter=0;exitX=0.948;exitY=0.986;exitDx=0;exitDy=0;exitPerimeter=0;" edge="1" parent="1" source="T33Bu6MzQeJHdCOrsTAm-42" target="T33Bu6MzQeJHdCOrsTAm-36">
          <mxGeometry relative="1" as="geometry">
            <mxPoint x="1469.39" y="1788.42" as="sourcePoint" />
            <mxPoint x="1349.39" y="1788.42" as="targetPoint" />
            <Array as="points">
              <mxPoint x="1459.39" y="1788.42" />
              <mxPoint x="692.39" y="1788.42" />
            </Array>
          </mxGeometry>
        </mxCell>
      </root>
    </mxGraphModel>
  </diagram>
</mxfile>
